<svg width="30" height="30" viewBox="0 0 30 30" fill="none" xmlns="http://www.w3.org/2000/svg">
<path fill-rule="evenodd" clip-rule="evenodd" d="M15 5C12.2375 5 10 7.2375 10 10C10 12.7625 12.2375 15 15 15C17.7625 15 20 12.7625 20 10C20 7.2375 17.7625 5 15 5ZM17.625 10C17.625 8.55 16.45 7.375 15 7.375C13.55 7.375 12.375 8.55 12.375 10C12.375 11.45 13.55 12.625 15 12.625C16.45 12.625 17.625 11.45 17.625 10ZM22.625 21.25C22.625 20.45 18.7125 18.625 15 18.625C11.2875 18.625 7.375 20.45 7.375 21.25V22.625H22.625V21.25ZM5 21.25C5 17.925 11.6625 16.25 15 16.25C18.3375 16.25 25 17.925 25 21.25V25H5V21.25Z" fill="black"/>
</svg>
